# xmcd
#
# Track frame offsets:
#	150
#	13653
#	28041
#	38454
#	52921
#	70422
#	84052
#	96534
#	109328
#	123946
#	137486
#	156462
#	170118
#	187470
#	202719
#
# Disc length: 2892 seconds
#
# Revision: 1
# Processed by: cddbd v1.5.2PL0 Copyright (c) Steve Scherf et al.
# Submitted via: audiograbber 1.83.01
#
DISCID=cb0b4a0f
DTITLE=Chartbuster Country Timeline - 80101
DYEAR=1970
DGENRE=Country
TTITLE0=Merle Haggard - The Fightin' Side of Me
TTITLE1=Blanchard and Morgan - Tennessee Bird Walk
TTITLE2=Charlie Pride - Is Anybody Goin' to San Antone
TTITLE3=Loretta Lynn - Coal Miner's Daughter
TTITLE4=Marty Robbins - My Woman My Woman My Wife
TTITLE5=Sonny James - My Love
TTITLE6=Conway Twitty - Hello Darlin'
TTITLE7=Charlie Pride - Wonder Could I Live There Anymore
TTITLE8=Lynn Anderson - Rose Garden
TTITLE9=Sonny James - Don't Keep Me Hangin' On
TTITLE10=Ray Price - For the Good Times
TTITLE11=Jerry Lee Lewis - There Must Be More to Love
TTITLE12=Johnny Cash - Sunday Morning Coming Down
TTITLE13=Conway Twitty - Fifteen Years Ago
TTITLE14=Sonny James - Endlessly
EXTD=
EXTT0=
EXTT1=
EXTT2=
EXTT3=
EXTT4=
EXTT5=
EXTT6=
EXTT7=
EXTT8=
EXTT9=
EXTT10=
EXTT11=
EXTT12=
EXTT13=
EXTT14=
PLAYORDER=
